<?xml version="1.0" encoding="UTF-8" standalone="no"?>
<!-- Created with Inkscape (http://www.inkscape.org/) -->

<svg
   xmlns:dc="http://purl.org/dc/elements/1.1/"
   xmlns:cc="http://creativecommons.org/ns#"
   xmlns:rdf="http://www.w3.org/1999/02/22-rdf-syntax-ns#"
   xmlns:svg="http://www.w3.org/2000/svg"
   xmlns="http://www.w3.org/2000/svg"
   xmlns:sodipodi="http://sodipodi.sourceforge.net/DTD/sodipodi-0.dtd"
   xmlns:inkscape="http://www.inkscape.org/namespaces/inkscape"
   width="836.21368mm"
   height="509.1427mm"
   viewBox="0 0 836.21362 509.14269"
   version="1.1"
   id="svg8"
   inkscape:version="0.92.4 (5da689c313, 2019-01-14)"
   sodipodi:docname="KapanLagi Youniverse.svg">
  <defs
     id="defs2" />
  <sodipodi:namedview
     id="base"
     pagecolor="#ffffff"
     bordercolor="#666666"
     borderopacity="1.0"
     inkscape:pageopacity="0.0"
     inkscape:pageshadow="2"
     inkscape:zoom="0.061871843"
     inkscape:cx="1528.823"
     inkscape:cy="454.14219"
     inkscape:document-units="mm"
     inkscape:current-layer="layer1"
     showgrid="false"
     showguides="true"
     inkscape:guide-bbox="true"
     fit-margin-top="0"
     fit-margin-left="0"
     fit-margin-right="0"
     fit-margin-bottom="0"
     inkscape:window-width="1366"
     inkscape:window-height="745"
     inkscape:window-x="-8"
     inkscape:window-y="-8"
     inkscape:window-maximized="1" />
  <metadata
     id="metadata5">
    <rdf:RDF>
      <cc:Work
         rdf:about="">
        <dc:format>image/svg+xml</dc:format>
        <dc:type
           rdf:resource="http://purl.org/dc/dcmitype/StillImage" />
        <dc:title></dc:title>
      </cc:Work>
    </rdf:RDF>
  </metadata>
  <g
     inkscape:label="Layer 1"
     inkscape:groupmode="layer"
     id="layer1"
     transform="translate(672.38879,84.662269)">
    <path
       id="path911"
       style="fill:#f2a03f;fill-opacity:1;fill-rule:evenodd;stroke-width:1.03706777"
       d="m 163.32217,273.73081 a 51.71033,52.002153 0 0 1 -51.61866,52.00208 51.71033,52.002153 0 0 1 -51.801682,-51.81772 51.71033,52.002153 0 0 1 51.435032,-52.18584 51.71033,52.002153 0 0 1 51.98402,51.63276 m -23.38549,0.36872 a 28.323535,28.177622 0 0 1 -28.27334,28.17759 28.323535,28.177622 0 0 1 -28.373555,-28.0777 28.323535,28.177622 0 0 1 28.172735,-28.27719 28.323535,28.177622 0 0 1 28.47344,27.97751"
       inkscape:connector-curvature="0" />
    <path
       id="path848"
       style="fill:#584dfc;fill-opacity:1;stroke-width:0.77038038"
       d="m -444.81713,47.880653 c 33.39465,-40.2646413 54.80263,-66.71354 56.11977,-69.33431 1.87895,-3.738589 2.12949,-5.098142 2.12949,-11.555707 0,-6.438221 -0.26686,-7.896372 -2.21832,-12.121403 -7.18927,-15.565133 -26.75556,-21.002846 -41.59194,-11.558934 -2.71704,1.729492 -13.4455,13.652989 -38.93438,43.27126 -19.35116,22.4861686 -36.78582,42.85254 -38.74372,45.258558 -4.66563,5.733473 -8.70527,14.084219 -10.73754,22.196674 -3.4224,13.661597 -0.28194,29.57755 8.94119,45.314458 3.6289,6.191751 9.59783,14.163591 10.38603,13.871131 0.3625,-0.13452 24.95475,-29.538289 54.64942,-65.341727 z m 41.83626,250.965797 c 6.0677,-2.77787 10.92849,-7.5228 13.90932,-13.5777 2.26379,-4.59842 2.50368,-5.7516 2.50368,-12.03533 0,-12.38578 4.16234,-7.45143 -66.30776,-78.60539 -34.16827,-34.49985 -63.87889,-64.90466 -66.02353,-67.56624 -12.09446,-15.00951 -20.57333,-32.55101 -23.30473,-48.213954 -0.63141,-3.620754 -1.27652,-6.711707 -1.43356,-6.868762 -0.157,-0.157013 -2.00619,1.8967 -4.10919,4.563917 -9.5191,12.07285 -16.72273,24.871079 -19.50408,34.651599 -2.95062,10.37589 -2.75003,26.64295 0.48755,39.53207 1.78474,7.10524 7.47209,17.79611 13.32087,25.04011 4.95887,6.14177 96.9754,98.46165 110.81066,111.17594 6.69547,6.15299 12.62981,10.02936 19.52412,12.75337 5.7882,2.28696 14.03593,1.93881 20.12665,-0.84963 z m -206.47721,0.009 c 6.10451,-2.79746 10.9706,-7.55088 13.93786,-13.61511 l 2.4904,-5.08965 0.20527,-158.31324 c 0.20266,-156.264787 0.1854,-158.378058 -1.33082,-163.320735 -0.85258,-2.779331 -2.82925,-6.692772 -4.44233,-8.794984 -15.06033,-19.626968 -45.57776,-12.1646 -50.24924,12.287372 -0.64412,3.371479 -0.8172,46.2782252 -0.64938,160.983917 l 0.22876,156.38731 2.10621,4.49585 c 3.89772,8.31988 9.83503,13.80389 17.73388,16.37988 5.1867,1.69152 14.67396,1.02609 19.96943,-1.40061 z m -22.09077,24.84863 c -10.13878,-2.17933 -19.58854,-7.66995 -27.16707,-15.78495 -5.94944,-6.37061 -9.23196,-12.03066 -11.85971,-20.44983 l -1.80337,-5.77785 V 120.29641 c 0,-180.745106 -0.49619,-164.98429 5.57818,-177.187571 3.90055,-7.836125 13.72678,-17.795396 21.53885,-21.830501 26.34807,-13.609347 58.12154,-3.035069 70.74372,23.543671 4.93188,10.38512 4.95681,10.729227 4.97164,68.584049 0.009,28.70638 0.27666,52.193348 0.59846,52.193348 0.32178,0 1.00108,-0.666133 1.50954,-1.480324 2.08274,-3.334988 17.77151,-21.625142 33.90259,-39.52401 14.73045,-16.3447776 41.13317,-46.709618 73.76578,-84.835501 9.24338,-10.799398 14.85784,-15.526418 23.15473,-19.494868 15.06758,-7.206888 34.25856,-6.347858 48.7449,2.181924 6.58963,3.880077 15.44823,13.111603 18.86618,19.660349 8.84089,16.93909 7.87041,38.559604 -2.3784,52.9866046 -1.49877,2.109785 -26.98571,33.1368974 -56.63764,68.9491134 -29.65193,35.812216 -54.20985,65.496266 -54.57316,65.964566 -0.43092,0.55547 18.51643,20.24011 54.50208,56.62296 58.48814,59.13371 58.90905,59.60814 62.81088,70.79393 1.47874,4.23925 1.74836,6.603 1.75755,15.40766 0.009,9.30893 -0.21117,11.06413 -2.10468,16.72844 -5.02652,15.03618 -18.0022,27.94023 -32.86921,32.68774 -7.17637,2.29165 -18.94517,2.76933 -26.54929,1.07757 -7.36332,-1.63819 -17.71384,-6.75999 -25.84558,-12.78932 -3.88033,-2.87709 -27.29974,-25.62997 -62.41302,-60.63681 l -56.20218,-56.03168 -0.20571,44.68206 -0.20571,44.68213 -2.17527,6.15565 c -2.94935,8.34613 -6.80253,14.4489 -12.89444,20.42248 -6.00534,5.88871 -11.55258,9.3669 -19.33964,12.12623 -4.66385,1.65263 -7.26457,2.03957 -14.895,2.21606 -5.08451,0.1177 -10.63125,-0.0843 -12.32609,-0.44855 z"
       inkscape:connector-curvature="0" />
    <path
       id="path842"
       style="fill:#e94786;fill-opacity:1;stroke-width:0.77038038"
       d="m -260.61069,92.724576 c 0,-141.621133 0.27307,-133.512835 -4.76023,-141.356537 -2.84236,-4.429439 -7.47178,-8.36744 -12.63469,-10.747628 -5.45098,-2.513009 -16.76732,-2.513009 -22.21829,0 -8.27776,3.816203 -14.04502,10.635389 -16.23958,19.201601 -1.07579,4.199228 -1.18011,15.904197 -0.94367,105.901759 0.26215,99.791949 0.28823,101.281119 1.89969,108.499289 5.12291,22.94703 14.83571,35.737 32.28408,42.51224 5.52315,2.14462 15.24477,4.27751 20.10897,4.41181 l 2.50372,0.0692 z M -130.84357,298.7018 c 17.39226,-8.53947 21.55594,-30.59461 8.50331,-45.04237 -5.8936,-5.08229 -10.51059,-7.71403 -19.15755,-8.24264 -33.51602,0.16574 -62.06912,-0.80936 -100.08448,-0.37742 -19.82328,0.71425 -24.41832,-0.58593 -33.08783,-1.89 -2.64846,-0.67766 -2.70458,0.14806 -0.58228,8.56628 1.89847,7.53051 6.51795,16.99919 11.13698,22.82783 10.0738,12.71184 29.8146,22.91652 50.21651,25.95861 2.48518,0.37056 21.15874,0.62308 41.49678,0.56118 l 29.79626,-0.0908 c 5.69895,0.12556 7.74387,-0.2978 11.7623,-2.27067 z m -85.91051,24.56684 c -36.97131,-5.76379 -64.40306,-24.48465 -76.33844,-52.09743 -3.83662,-8.87611 -5.8355,-16.86097 -6.95832,-27.79615 l -0.92838,-9.04159 -5.0457,-3.36565 c -17.74957,-11.83965 -28.53871,-30.32174 -32.90055,-56.35958 -1.33034,-7.94141 -1.41959,-15.01272 -1.41959,-112.475546 V -41.868737 l 1.80337,-5.777857 c 2.88303,-9.237013 6.03753,-14.397786 13.21286,-21.616338 10.40703,-10.469717 21.93986,-15.361918 36.21409,-15.361918 14.2742,0 25.80703,4.892201 36.21406,15.361918 6.9973,7.03944 10.14484,12.099114 13.2076,21.231151 l 1.80863,5.392659 0.20549,131.878402 0.2055,131.87834 51.0248,0.30201 c 27.95174,0.16553 40.64226,0.0664 47.59503,0.39842 25.97233,0.51218 42.688059,22.30017 45.897875,38.68759 2.805099,10.68258 1.341,24.90374 -3.586513,34.83509 -4.971712,10.02056 -13.189312,17.95356 -22.296582,23.26384 -7.99676,4.66277 -16.36817,6.11556 -27.89787,6.38412 -29.12272,-0.58165 -53.62622,0.86889 -70.01732,-1.72005 z"
       inkscape:connector-curvature="0" />
    <path
       id="path836"
       style="fill:#f2a03f;fill-opacity:1;stroke-width:0.77038038"
       d="M 57.360285,76.326144 C 117.7937,3.789219 137.0241,-19.777557 138.13893,-22.667813 c 1.04794,-2.717197 1.46287,-5.760257 1.46247,-10.726738 -3.6e-4,-5.97787 -0.29759,-7.570465 -2.15667,-11.555708 C 130.18566,-60.511848 110.56477,-66.294718 96.173758,-57.114073 93.689673,-55.529415 80.926837,-40.199403 47.56451,1.2725663 22.682075,32.203407 1.0124259,58.779887 -0.59019043,60.331467 -2.1928889,61.883047 -5.2790411,64.136399 -7.44836,65.338928 c -3.513315,1.947517 -4.701868,2.18642 -10.87768,2.18642 -6.061757,0 -7.452287,-0.267554 -11.060199,-2.128048 -2.269709,-1.17045 -5.132044,-2.903806 -6.360797,-3.851905 -1.228754,-0.948121 -22.038659,-26.33749 -46.244323,-56.420928 -24.205601,-30.083358 -45.263551,-56.033734 -46.795371,-57.667515 -10.94088,-11.668745 -29.46436,-11.991436 -40.74597,-0.70983 -7.96866,7.968621 -10.46308,22.099985 -5.6482,31.998343 1.88751,3.880418 151.690301,193.359475 152.599813,193.016935 0.344202,-0.12972 36.31782,-43.07593 79.941372,-95.436256 z M -6.9315073,299.14905 c 5.4170883,-2.40309 11.4985385,-8.51896 14.1249237,-14.20503 l 2.2142383,-4.7936 0.2124817,-54.88966 c 0.1168272,-30.18928 -0.056328,-54.87035 -0.3851926,-54.84678 -0.3286539,0.0236 -8.91769196,10.07657 -19.0867214,22.34007 -19.9319044,24.03719 -24.9815764,31.52664 -30.3587704,45.02682 -4.913469,12.33586 -6.521566,19.96743 -6.57426,31.19903 -0.73027,14.30615 6.96965,26.90998 19.499472,31.19457 5.095075,1.63188 15.551201,1.1051 20.3539118,-1.02542 z m -23.3998397,24.12546 c -9.851704,-2.392 -19.41922,-8.14694 -26.481441,-15.92877 -4.8192,-5.31022 -10.339515,-15.794 -12.088812,-22.95822 -1.544069,-6.32346 -1.298484,-24.9952 0.435658,-33.12641 4.110658,-19.27458 14.312204,-40.76618 26.397696,-55.61237 l 4.194403,-5.15245 -76.893897,-97.06743 c -80.86582,-102.0814822 -81.75177,-103.2800849 -84.63368,-114.497325 -2.77352,-10.795396 -0.94626,-25.913589 4.32799,-35.809198 13.21065,-24.785656 43.75222,-34.851664 68.23946,-22.49057 10.46993,5.285226 11.31458,6.225299 59.203577,65.894592 24.998846,31.148347 46.255023,57.072932 47.235942,57.610115 1.25743,0.688603 2.166394,0.744267 3.081522,0.188676 0.713912,-0.433388 21.7783559,-26.244461 46.80987,-57.357839 31.281757,-38.882287 46.896823,-57.690017 49.94153,-60.152593 12.323163,-9.967092 29.539779,-13.790476 44.671509,-9.920427 31.97296,8.177303 48.22066,43.748511 33.41156,73.148137 -1.80509,3.5834649 -19.3273,25.146245 -63.541213,78.193688 l -61.048951,73.245714 -0.02707,68.56388 c -0.03014,76.54961 0.09434,74.56045 -5.343823,85.51228 -6.899992,13.89629 -18.7936616,23.57174 -33.644994,27.37009 -6.962989,1.78083 -17.707025,1.93432 -24.247022,0.34638 z"
       inkscape:connector-curvature="0" />
    <path
       id="path1077"
       style="fill:#584dfc;fill-opacity:1;stroke-width:0.77038038"
       d="m -487.54371,399.74936 0.20069,11.96173 -0.21226,11.96171 h -3.06196 -3.06195 v -18.10392 c 0,-16.47725 -0.10066,-18.44922 0.04,-18.98094 0.76993,-0.0457 1.45565,-0.009 2.21308,0.0174 2.79117,2.681 6.81618,8.06779 11.31424,12.72088 5.70189,6.56432 10.18935,12.0107 10.50714,12.01384 0.14828,-4.39507 0.15591,-8.09424 0.13757,-11.66581 -0.0174,-3.22618 -0.002,-0.96033 0,-6.70775 5.9e-4,-1.35822 8.4e-4,-3.16397 0,-5.59549 l 3.1366,0.093 h 2.69633 c -0.0304,10.23955 0.0245,19.94149 0.0445,29.33618 0.002,1.36129 -0.009,3.95736 -0.0445,7.66098 -0.0937,-0.0247 -0.60384,0.0532 -1.23415,0 -0.289,-0.0245 -0.6695,0.0389 -0.9142,-0.17841 -1.49949,-1.3317 -2.69293,-2.58961 -3.74138,-3.81522 -6.76278,-7.72905 -11.94145,-13.70492 -18.01972,-20.71828 z m 102.74651,12.90416 c -3.12222,-7.98605 -4.18281,-9.46891 -5.93632,-13.99055 -2.27728,5.05343 -4.11057,8.99633 -5.90236,13.99055 2.87528,0.10854 4.34561,0.0924 11.83868,0 z m -23.28214,11.01919 c 5.79074,-12.56712 10.32723,-24.24693 16.2883,-37.10196 0.65091,-0.0225 0.8198,0.009 1.84861,0 1.19413,1.54573 3.51189,7.8501 8.28196,18.85952 4.20672,9.7092 7.9456,18.10048 7.9456,18.24251 -1.04227,0.0109 -2.53871,0.007 -3.48446,0 -1.06259,-0.007 -1.80973,-0.0153 -2.5459,-7e-5 -1.31573,-1.76862 -1.95348,-3.92074 -2.89566,-5.72963 l -16.3061,0.0516 c -1.03124,1.97876 -1.8038,3.95584 -2.73035,5.67808 -2.84898,0.11269 -3.24142,-6e-5 -6.402,0 z m -112.4974,-11.01919 c -3.12223,-7.98605 -4.18281,-9.46891 -5.93632,-13.99055 -2.27729,5.05343 -4.11057,8.99633 -5.90237,13.99055 2.8753,0.10854 4.34561,0.0924 11.83869,0 z m -23.28216,11.01919 c 5.79076,-12.56712 10.32725,-24.24693 16.28831,-37.10196 0.65091,-0.0225 0.81981,0.009 1.84862,0 1.19411,1.54573 3.51189,7.8501 8.28195,18.85952 4.20672,9.7092 7.9456,18.10048 7.9456,18.24251 -1.04226,0.0109 -2.53871,0.007 -3.48444,0 -1.0626,-0.007 -1.80976,-0.0153 -2.54592,-7e-5 -1.31573,-1.76862 -1.95347,-3.92074 -2.89566,-5.72963 l -16.3061,0.0516 c -1.03123,1.97876 -1.8038,3.95584 -2.73035,5.67808 -2.84896,0.11269 -3.24141,-6e-5 -6.40201,0 z m 683.21007,-17.91124 0.20677,-17.91134 11.74829,-0.2127 11.74831,-0.2127 v 2.71639 2.7164 h -8.85938 -8.85938 v 4.62229 4.62229 h 6.54824 6.54823 v 2.69633 2.69632 h -6.54823 -6.54824 v 5.39268 5.39265 h 9.24457 9.24456 v 2.69633 2.69634 h -12.34026 -12.34034 z m -68.742277,-2.88892 c 2.061225,-2.06122 1.997583,-5.9627 -0.134306,-8.23195 -1.408569,-1.4993 -2.450414,-1.78302 -6.548231,-1.78302 h -4.873181 v 5.77787 5.77785 h 5.007463 c 3.98033,0 5.323555,-0.31606 6.548231,-1.54075 z m -17.718753,2.69633 v -18.10395 l 7.126029,0.004 c 8.566633,0.004 12.459744,0.97378 15.290281,3.8043 4.229916,4.23 3.651138,12.10048 -1.17298,15.94973 l -2.58301,2.06106 5.313319,7.19425 5.313386,7.19423 h -3.295837 c -3.252028,0 -3.364883,-0.0922 -8.48922,-6.93343 -5.021568,-6.7041 -5.294972,-6.93343 -8.2661,-6.93343 H 59.0532 v 6.93343 6.93343 H 55.971657 52.89014 v -18.10393 z m -41.600545,0 v -18.10395 h 11.555713 11.555714 v 2.69632 2.69633 h -8.859385 -8.859366 v 4.62229 4.62229 h 6.982251 6.982211 l -0.24137,2.50374 -0.241441,2.50372 -6.740834,0.22259 -6.740817,0.2226 v 5.36267 5.36267 h 9.244559 9.244553 v 2.69632 2.69635 H 23.2305 11.289595 Z m -73.186123,-0.0465 v -18.15044 c 2.034387,-0.035 4.410051,0.0435 6.018562,0 0.07207,12.10143 -0.03537,24.20069 0,36.30085 h -6.018606 z m -185.661702,10.91089 v -7.23954 l -6.18013,-10.6718 -6.6179,-11.14999 c 2.34527,0.0481 4.65601,-0.0522 6.78716,0 1.43468,2.35907 5.31087,9.73702 9.00869,15.20444 3.14744,-4.78358 8.00582,-13.99496 9.14946,-15.20444 1.5889,-0.13147 6.39679,-0.1319 6.39663,0.21161 -1.5e-4,0.34335 -3.42262,5.54371 -6.59664,11.05194 l -5.77095,10.01494 -0.007,7.51121 -0.007,7.5112 h -3.08152 -3.08152 v -7.23954 z m -59.31927,-29.06133 h 6.0677 c -0.0267,12.15991 0.009,24.73903 0.12381,36.30088 -2.0638,0 -4.12762,0 -6.19142,0 -9e-5,-12.1003 -9e-5,-24.20059 -9e-5,-36.30088 z m -136.94932,18.38954 0.2068,-17.91134 2.88893,-0.2391 2.88894,-0.2391 v 15.45411 15.45411 h 8.08899 8.08899 v 2.69633 2.69633 h -11.18471 -11.18472 z m -117.06989,-2.88894 c 2.06122,-2.0612 1.99757,-5.96268 -0.1343,-8.23193 -1.43361,-1.52601 -2.63933,-1.78301 -7.13977,-1.78301 h -4.94885 c 0,3.8519 0,7.70381 0,11.55572 h 5.08314 c 4.3655,0 5.89248,-0.29348 7.13975,-1.54078 z m -17.92507,2.6132 v -18.18709 l 11.06046,0.0734 c 5.36061,-0.34854 10.23432,1.65149 12.52475,5.12764 1.92278,2.93451 2.16469,7.98468 0.53118,11.0886 -2.88994,4.47144 -5.78525,5.82447 -11.00217,6.06639 l -7.42975,0.34453 v 13.67364 l -2.98814,8e-5 h -2.69633 z m -27.51482,7.1678 c -3.12222,-7.98606 -4.18281,-9.46892 -5.93632,-13.99056 -2.27729,5.05343 -4.11057,8.99634 -5.90237,13.99056 2.87529,0.10854 4.34561,0.0924 11.83869,0 z m -23.28216,11.01919 c 5.79076,-12.56712 10.32724,-24.24694 16.2883,-37.10196 0.65092,-0.0225 0.81981,0.009 1.84863,0 1.19411,1.54573 3.51189,7.85009 8.28195,18.85952 4.20672,9.70919 7.9456,18.10048 7.9456,18.2425 -1.04226,0.0109 -2.53871,0.007 -3.48444,0 -1.0626,-0.007 -1.80975,-0.0153 -2.54591,-6e-5 -1.31574,-1.76863 -1.95348,-3.92074 -2.89567,-5.72963 l -16.3061,0.0516 c -1.03124,1.97876 -1.80381,3.95584 -2.73035,5.67809 -2.84897,0.11269 -3.24141,-6e-5 -6.40201,0 z m -42.69914,-36.30079 2.97641,0.093 2.84225,-0.093 c -8.3e-4,1.51607 -0.007,3.00651 2e-5,4.48154 0.0131,2.88322 0.004,5.7057 0,8.59389 -8.3e-4,1.08938 -0.002,2.13648 0,3.25131 7.32571,-7.40475 8.42111,-8.95692 15.34253,-16.32674 h 7.65615 c -5.5567,6.21393 -11.10987,12.16114 -15.69904,17.19843 1.90815,2.31638 12.80902,14.79492 14.79898,16.98392 l 1.9259,2.11853 -3.80342,-0.0651 -3.8035,-0.0651 -8.08898,-9.37 -8.32862,-9.31841 0.0233,9.38358 -0.21641,9.43512 h -2.67261 l -2.9527,-0.093 c -4.2e-4,-12.06933 -3.9e-4,-24.13869 -3.9e-4,-36.20802 z m 775.77374,35.94281 c -3.20625,-1.14301 -7.424392,-4.71699 -7.424392,-6.29062 0,-0.53225 0.766449,-1.50456 1.703151,-2.1607 1.601627,-1.12179 1.850458,-1.05025 4.171151,1.19908 4.26861,4.13726 11.97388,3.88399 13.05641,-0.42918 0.7515,-2.99424 -0.99333,-4.98972 -6.84791,-7.83149 -3.044,-1.47752 -6.07052,-3.10439 -6.7255,-3.61527 -7.767053,-6.05775 -2.980135,-16.72162 7.50612,-16.72162 4.54718,0 7.3593,1.13392 10.10632,4.07517 l 1.78428,1.91041 -2.19443,1.56259 -2.19443,1.56256 -1.7661,-1.83494 c -4.07,-4.22875 -11.22891,-2.75756 -10.74796,2.20878 0.21663,2.23652 0.877,2.801 7.37986,6.30822 8.06796,4.35137 9.67798,6.15561 9.67798,10.84555 0,4.22072 -1.86271,7.01276 -5.90211,8.84679 -3.78142,1.71689 -7.46407,1.83285 -11.58244,0.36467 z M -39.610515,387.37193 c 1.956166,-0.0197 2.378545,-0.007 3.923727,0 0.64484,0.002 1.485193,0.004 2.714147,0 1.77456,5.39089 4.429899,10.92849 6.967973,17.22319 1.656789,4.12524 3.18568,7.50354 3.39753,7.50729 0.21182,0.004 2.614064,-5.39954 5.338273,-12.00734 2.711859,-6.56192 3.724003,-9.28808 5.114426,-12.72314 3.540457,-0.002 4.272452,0.007 6.4978729,0 l -7.9428229,18.52346 c -5.214286,11.66733 -6.957316,17.21571 -8.039475,18.56673 -0.656984,0.0471 -1.290163,-0.0131 -1.918583,0 -4.890255,-11.84144 -11.50433,-25.78703 -16.053068,-37.09019 z m -66.225225,12.37743 0.20068,11.96173 -0.21226,11.96171 h -3.06195 -3.06195 v -18.10392 c 0,-16.47725 -0.10067,-18.44922 0.04,-18.98094 0.76993,-0.0457 1.45565,-0.009 2.21309,0.0174 2.79116,2.681 6.81617,8.06779 11.31423,12.72088 5.701895,6.56432 10.189361,12.0107 10.50714,12.01384 0.148277,-4.39507 0.155921,-8.09424 0.137577,-11.66581 -0.01747,-3.22618 -0.0022,-0.96033 0,-6.70775 7.67e-4,-1.35822 9.13e-4,-3.16397 0,-5.59549 l 3.136594,0.093 h 2.696326 c -0.03036,10.23955 0.02446,19.94149 0.04455,29.33618 0.0022,1.36129 -0.0087,3.95736 -0.04455,7.66098 -0.09368,-0.0247 -0.60383,0.0532 -1.234149,0 -0.288999,-0.0245 -0.669497,0.0389 -0.914186,-0.17841 -1.499497,-1.3317 -2.692942,-2.58961 -3.741384,-3.81522 -6.762788,-7.72904 -11.941456,-13.70491 -18.019718,-20.71827 z m -45.66851,23.61933 c -3.7016,-1.37258 -5.6908,-3.16369 -7.54219,-6.79121 -1.26258,-2.47377 -1.45879,-4.624 -1.45879,-15.98538 v -13.12717 h 2.69633 2.69634 v 12.36434 c 0,13.70024 0.57924,15.97496 4.59709,18.05265 4.5508,2.3533 10.36131,0.77174 12.44872,-3.38841 0.65283,-1.30115 1.09904,-6.32963 1.28747,-14.5099 l 0.28844,-12.51868 h 2.69239 2.69248 l -0.25499,13.73316 c -0.24845,13.37882 -0.30793,13.81302 -2.30482,16.82797 -3.49222,5.27262 -11.53283,7.68078 -17.83847,5.34263 z m -38.05425,-6.83718 c 7.22871,-5.51359 6.77296,-17.57252 -0.84204,-22.27881 -3.91545,-2.41986 -9.88914,-2.29186 -13.79919,0.2957 -3.78766,2.50651 -5.60983,6.19907 -5.60983,11.36775 0,5.73933 2.8296,10.26089 7.70417,12.31084 3.34106,1.40501 9.58886,0.56074 12.54689,-1.69548 z m -12.55227,7.19189 c -11.48399,-3.49327 -16.96687,-15.30586 -12.02772,-25.91293 4.39516,-9.43897 16.01682,-13.20008 25.76984,-8.33996 14.20335,7.07783 12.97505,27.83911 -1.97805,33.43378 -4.20897,1.57478 -8.33527,1.86209 -11.76407,0.81911 z m -146.88321,-0.89189 c -5.10881,-1.9644 -8.97696,-6.2265 -10.7469,-11.8414 -3.76479,-11.94328 5.05945,-24.40065 17.92377,-24.40065 6.01494,-0.12862 11.91001,3.33362 15.17037,7.88875 -1.37268,1.43729 -2.8534,2.81814 -4.00625,3.49106 -1.98343,-1.52454 -3.30164,-3.37676 -6.03474,-4.46156 -5.61911,-2.18539 -13.44971,-0.2151 -16.35794,5.78521 -4.10985,8.47941 0.54555,18.38772 9.17718,19.54546 6.75316,0.90577 13.1092,-2.38625 13.1092,-6.78976 v -2.24267 h -5.39268 -5.39265 v -5.44478 c 5.57578,0.32014 10.86438,0.14457 16.44073,0 0.11465,2.613 0.0623,5.47583 0.0954,8.21081 0.0109,0.88342 0.0304,1.75347 0.0677,2.59747 l -3.01602,3.43029 c -5.62075,5.62072 -13.37061,7.17968 -21.03717,4.23177 z"
       inkscape:connector-curvature="0" />
  </g>
</svg>
